<svg id="icons" xmlns="http://www.w3.org/2000/svg" viewBox="0 0 108.04 108.48"><defs><style>.cls-1{fill:#414042;}</style></defs><title>instagram_Icon</title><path class="cls-1" d="M195.66,160.85h-54a27,27,0,0,0-27,27v54.48a27,27,0,0,0,27,27h54a27,27,0,0,0,27-27V187.85A27,27,0,0,0,195.66,160.85Zm-54,10h54a17,17,0,0,1,17,17v9.29H184a25.56,25.56,0,0,0-29.68,0H124.62v-9.29A17,17,0,0,1,141.62,170.85ZM179.84,218a10.65,10.65,0,1,1-10.65-10.65A10.67,10.67,0,0,1,179.84,218Zm15.82,41.29h-54a17,17,0,0,1-17-17V207.14H146a25.65,25.65,0,1,0,46.42,0h20.26v35.19A17,17,0,0,1,195.66,259.33Z" transform="translate(-114.62 -160.85)"/><rect class="cls-1" x="74.93" y="16.07" width="15.27" height="15.27" rx="3"/></svg>